<svg xmlns="http://www.w3.org/2000/svg" xmlns:v="https://svgstorm.com"
viewBox = "0 0 683 683"
width="683"
height="683">
<g fill="None" fill-opacity="0.0" stroke="#000000" stroke-opacity="0.00" stroke-width="0.3"><path d="
M 0.00 683.00 
L 683.00 683.00
L 683.00 0.00
L 0.00 0.00
L 0.00 683.00
M 327.00 116.00 
C 369.51 110.86 410.28 127.62 437.30 138.71 C 464.33 149.81 503.37 179.45 525.24 210.77 C 547.10 242.09 553.65 262.81 562.20 299.25 C 570.75 335.68 566.14 383.23 555.65 412.70 C 545.16 442.16 528.77 472.39 498.30 502.30 C 467.83 532.21 439.72 545.89 407.30 556.64 C 374.88 567.39 333.55 570.05 295.75 561.24 C 257.95 552.44 237.77 545.06 206.23 521.43 C 174.69 497.80 149.24 462.07 136.81 434.75 C 124.38 407.42 113.13 365.40 117.31 323.30 C 121.48 281.20 130.73 258.96 147.13 228.08 C 163.53 197.20 203.14 161.06 231.25 145.81 C 259.37 130.57 288.69 120.63 327.00 116.00 Z"/>
</g>
<g fill="None" fill-opacity="0.0" stroke="#FFFFFF" stroke-opacity="1.00" stroke-width="0.3"><path d="
M 327.00 116.00 
C 288.69 120.63 259.37 130.57 231.25 145.81 C 203.14 161.06 163.53 197.20 147.13 228.08 C 130.73 258.96 121.48 281.20 117.31 323.30 C 113.13 365.40 124.38 407.42 136.81 434.75 C 149.24 462.07 174.69 497.80 206.23 521.43 C 237.77 545.06 257.95 552.44 295.75 561.24 C 333.55 570.05 374.88 567.39 407.30 556.64 C 439.72 545.89 467.83 532.21 498.30 502.30 C 528.77 472.39 545.16 442.16 555.65 412.70 C 566.14 383.23 570.75 335.68 562.20 299.25 C 553.65 262.81 547.10 242.09 525.24 210.77 C 503.37 179.45 464.33 149.81 437.30 138.71 C 410.28 127.62 369.51 110.86 327.00 116.00
M 323.00 137.00 
C 340.96 133.66 364.29 139.00 380.75 140.60 C 397.21 142.21 410.80 149.37 424.30 154.71 C 437.79 160.05 449.84 167.61 462.90 177.10 C 475.96 186.59 493.57 203.06 503.30 216.70 C 513.03 230.35 521.23 241.52 526.92 254.13 C 532.61 266.74 537.46 281.91 541.59 297.75 C 545.73 313.58 546.41 333.85 545.07 353.07 C 543.73 372.30 543.16 385.81 537.80 401.25 C 532.44 416.69 528.13 427.74 520.81 441.25 C 513.49 454.77 502.58 468.70 489.25 483.25 C 475.92 497.80 459.73 508.90 446.75 516.19 C 433.77 523.48 421.58 531.09 407.08 535.13 C 392.58 539.17 379.23 543.93 360.92 545.92 C 342.62 547.92 316.50 544.75 300.75 542.20 C 285.01 539.65 269.48 532.40 257.23 527.42 C 244.98 522.45 232.56 514.98 219.70 505.30 C 206.83 495.62 187.99 478.87 178.43 465.23 C 168.87 451.60 161.29 439.51 155.09 426.90 C 148.90 414.29 145.15 397.51 141.20 381.75 C 137.25 365.99 136.16 344.45 137.40 326.25 C 138.64 308.04 141.70 294.78 146.64 279.30 C 151.57 263.81 155.91 254.00 163.39 240.25 C 170.87 226.50 181.61 213.34 195.25 198.25 C 208.88 183.16 225.27 173.92 237.75 165.61 C 250.24 157.29 262.71 152.72 276.75 147.61 C 290.79 142.50 306.23 140.12 323.00 137.00 Z"/>
</g>
<g fill="None" fill-opacity="0.0" stroke="#000000" stroke-opacity="0.00" stroke-width="0.3"><path d="
M 323.00 137.00 
C 306.23 140.12 290.79 142.50 276.75 147.61 C 262.71 152.72 250.24 157.29 237.75 165.61 C 225.27 173.92 208.88 183.16 195.25 198.25 C 181.61 213.34 170.87 226.50 163.39 240.25 C 155.91 254.00 151.57 263.81 146.64 279.30 C 141.70 294.78 138.64 308.04 137.40 326.25 C 136.16 344.45 137.25 365.99 141.20 381.75 C 145.15 397.51 148.90 414.29 155.09 426.90 C 161.29 439.51 168.87 451.60 178.43 465.23 C 187.99 478.87 206.83 495.62 219.70 505.30 C 232.56 514.98 244.98 522.45 257.23 527.42 C 269.48 532.40 285.01 539.65 300.75 542.20 C 316.50 544.75 342.62 547.92 360.92 545.92 C 379.23 543.93 392.58 539.17 407.08 535.13 C 421.58 531.09 433.77 523.48 446.75 516.19 C 459.73 508.90 475.92 497.80 489.25 483.25 C 502.58 468.70 513.49 454.77 520.81 441.25 C 528.13 427.74 532.44 416.69 537.80 401.25 C 543.16 385.81 543.73 372.30 545.07 353.07 C 546.41 333.85 545.73 313.58 541.59 297.75 C 537.46 281.91 532.61 266.74 526.92 254.13 C 521.23 241.52 513.03 230.35 503.30 216.70 C 493.57 203.06 475.96 186.59 462.90 177.10 C 449.84 167.61 437.79 160.05 424.30 154.71 C 410.80 149.37 397.21 142.21 380.75 140.60 C 364.29 139.00 340.96 133.66 323.00 137.00
M 474.00 354.00 
C 390.15 354.23 292.89 354.17 209.00 354.00
C 200.14 341.38 209.38 332.27 227.00 334.00 C 244.62 335.73 264.89 333.34 283.00 334.00 C 301.11 334.66 320.77 333.98 339.00 334.00 C 357.23 334.02 376.94 334.60 395.00 334.00 C 413.06 333.40 433.51 335.61 451.00 334.00 C 468.49 332.39 484.62 337.19 474.00 354.00 Z"/>
</g>
<g fill="None" fill-opacity="0.0" stroke="#FFFFFF" stroke-opacity="1.00" stroke-width="0.3"><path d="
M 474.00 354.00 
C 484.62 337.19 468.49 332.39 451.00 334.00 C 433.51 335.61 413.06 333.40 395.00 334.00 C 376.94 334.60 357.23 334.02 339.00 334.00 C 320.77 333.98 301.11 334.66 283.00 334.00 C 264.89 333.34 244.62 335.73 227.00 334.00 C 209.38 332.27 200.14 341.38 209.00 354.00
C 292.89 354.17 390.15 354.23 474.00 354.00 Z"/>
</g>
<g fill="#000000" fill-opacity="0.00" stroke="None">
<path d="
M 0.00 683.00 
L 683.00 683.00
L 683.00 0.00
L 0.00 0.00
L 0.00 683.00
M 327.00 116.00 
C 369.51 110.86 410.28 127.62 437.30 138.71 C 464.33 149.81 503.37 179.45 525.24 210.77 C 547.10 242.09 553.65 262.81 562.20 299.25 C 570.75 335.68 566.14 383.23 555.65 412.70 C 545.16 442.16 528.77 472.39 498.30 502.30 C 467.83 532.21 439.72 545.89 407.30 556.64 C 374.88 567.39 333.55 570.05 295.75 561.24 C 257.95 552.44 237.77 545.06 206.23 521.43 C 174.69 497.80 149.24 462.07 136.81 434.75 C 124.38 407.42 113.13 365.40 117.31 323.30 C 121.48 281.20 130.73 258.96 147.13 228.08 C 163.53 197.20 203.14 161.06 231.25 145.81 C 259.37 130.57 288.69 120.63 327.00 116.00 Z"/>
</g>
<g fill="#FFFFFF" fill-opacity="1.00" stroke="None">
<path d="
M 327.00 116.00 
C 288.69 120.63 259.37 130.57 231.25 145.81 C 203.14 161.06 163.53 197.20 147.13 228.08 C 130.73 258.96 121.48 281.20 117.31 323.30 C 113.13 365.40 124.38 407.42 136.81 434.75 C 149.24 462.07 174.69 497.80 206.23 521.43 C 237.77 545.06 257.95 552.44 295.75 561.24 C 333.55 570.05 374.88 567.39 407.30 556.64 C 439.72 545.89 467.83 532.21 498.30 502.30 C 528.77 472.39 545.16 442.16 555.65 412.70 C 566.14 383.23 570.75 335.68 562.20 299.25 C 553.65 262.81 547.10 242.09 525.24 210.77 C 503.37 179.45 464.33 149.81 437.30 138.71 C 410.28 127.62 369.51 110.86 327.00 116.00
M 323.00 137.00 
C 340.96 133.66 364.29 139.00 380.75 140.60 C 397.21 142.21 410.80 149.37 424.30 154.71 C 437.79 160.05 449.84 167.61 462.90 177.10 C 475.96 186.59 493.57 203.06 503.30 216.70 C 513.03 230.35 521.23 241.52 526.92 254.13 C 532.61 266.74 537.46 281.91 541.59 297.75 C 545.73 313.58 546.41 333.85 545.07 353.07 C 543.73 372.30 543.16 385.81 537.80 401.25 C 532.44 416.69 528.13 427.74 520.81 441.25 C 513.49 454.77 502.58 468.70 489.25 483.25 C 475.92 497.80 459.73 508.90 446.75 516.19 C 433.77 523.48 421.58 531.09 407.08 535.13 C 392.58 539.17 379.23 543.93 360.92 545.92 C 342.62 547.92 316.50 544.75 300.75 542.20 C 285.01 539.65 269.48 532.40 257.23 527.42 C 244.98 522.45 232.56 514.98 219.70 505.30 C 206.83 495.62 187.99 478.87 178.43 465.23 C 168.87 451.60 161.29 439.51 155.09 426.90 C 148.90 414.29 145.15 397.51 141.20 381.75 C 137.25 365.99 136.16 344.45 137.40 326.25 C 138.64 308.04 141.70 294.78 146.64 279.30 C 151.57 263.81 155.91 254.00 163.39 240.25 C 170.87 226.50 181.61 213.34 195.25 198.25 C 208.88 183.16 225.27 173.92 237.75 165.61 C 250.24 157.29 262.71 152.72 276.75 147.61 C 290.79 142.50 306.23 140.12 323.00 137.00 Z"/>
</g>
<g fill="#000000" fill-opacity="0.00" stroke="None">
<path d="
M 323.00 137.00 
C 306.23 140.12 290.79 142.50 276.75 147.61 C 262.71 152.72 250.24 157.29 237.75 165.61 C 225.27 173.92 208.88 183.16 195.25 198.25 C 181.61 213.34 170.87 226.50 163.39 240.25 C 155.91 254.00 151.57 263.81 146.64 279.30 C 141.70 294.78 138.64 308.04 137.40 326.25 C 136.16 344.45 137.25 365.99 141.20 381.75 C 145.15 397.51 148.90 414.29 155.09 426.90 C 161.29 439.51 168.87 451.60 178.43 465.23 C 187.99 478.87 206.83 495.62 219.70 505.30 C 232.56 514.98 244.98 522.45 257.23 527.42 C 269.48 532.40 285.01 539.65 300.75 542.20 C 316.50 544.75 342.62 547.92 360.92 545.92 C 379.23 543.93 392.58 539.17 407.08 535.13 C 421.58 531.09 433.77 523.48 446.75 516.19 C 459.73 508.90 475.92 497.80 489.25 483.25 C 502.58 468.70 513.49 454.77 520.81 441.25 C 528.13 427.74 532.44 416.69 537.80 401.25 C 543.16 385.81 543.73 372.30 545.07 353.07 C 546.41 333.85 545.73 313.58 541.59 297.75 C 537.46 281.91 532.61 266.74 526.92 254.13 C 521.23 241.52 513.03 230.35 503.30 216.70 C 493.57 203.06 475.96 186.59 462.90 177.10 C 449.84 167.61 437.79 160.05 424.30 154.71 C 410.80 149.37 397.21 142.21 380.75 140.60 C 364.29 139.00 340.96 133.66 323.00 137.00
M 474.00 354.00 
C 390.15 354.23 292.89 354.17 209.00 354.00
C 200.14 341.38 209.38 332.27 227.00 334.00 C 244.62 335.73 264.89 333.34 283.00 334.00 C 301.11 334.66 320.77 333.98 339.00 334.00 C 357.23 334.02 376.94 334.60 395.00 334.00 C 413.06 333.40 433.51 335.61 451.00 334.00 C 468.49 332.39 484.62 337.19 474.00 354.00 Z"/>
</g>
<g fill="#FFFFFF" fill-opacity="1.00" stroke="None">
<path d="
M 474.00 354.00 
C 484.62 337.19 468.49 332.39 451.00 334.00 C 433.51 335.61 413.06 333.40 395.00 334.00 C 376.94 334.60 357.23 334.02 339.00 334.00 C 320.77 333.98 301.11 334.66 283.00 334.00 C 264.89 333.34 244.62 335.73 227.00 334.00 C 209.38 332.27 200.14 341.38 209.00 354.00
C 292.89 354.17 390.15 354.23 474.00 354.00 Z"/>
</g>
</svg>