<svg xmlns="http://www.w3.org/2000/svg" xmlns:v="https://svgstorm.com"
viewBox = "0 0 683 683"
width="683"
height="683">
<g fill="None" fill-opacity="0.0" stroke="#000000" stroke-opacity="0.00" stroke-width="0.3"><path d="
M 0.00 683.00 
L 683.00 683.00
L 683.00 0.00
L 0.00 0.00
L 0.00 683.00
M 327.00 116.00 
C 369.51 110.86 410.28 127.62 437.30 138.71 C 464.33 149.81 503.37 179.45 525.24 210.77 C 547.10 242.09 553.65 262.81 562.20 299.25 C 570.75 335.68 566.14 383.23 555.65 412.70 C 545.16 442.16 528.77 472.39 498.30 502.30 C 467.83 532.21 439.72 545.89 407.30 556.64 C 374.88 567.39 333.55 570.05 295.75 561.24 C 257.95 552.44 237.77 545.06 206.23 521.43 C 174.69 497.80 149.24 462.07 136.81 434.75 C 124.38 407.42 113.13 365.40 117.31 323.30 C 121.48 281.20 130.73 258.96 147.13 228.08 C 163.53 197.20 203.14 161.06 231.25 145.81 C 259.37 130.57 288.69 120.63 327.00 116.00 Z"/>
</g>
<g fill="None" fill-opacity="0.0" stroke="#FFFFFF" stroke-opacity="1.00" stroke-width="0.3"><path d="
M 327.00 116.00 
C 288.69 120.63 259.37 130.57 231.25 145.81 C 203.14 161.06 163.53 197.20 147.13 228.08 C 130.73 258.96 121.48 281.20 117.31 323.30 C 113.13 365.40 124.38 407.42 136.81 434.75 C 149.24 462.07 174.69 497.80 206.23 521.43 C 237.77 545.06 257.95 552.44 295.75 561.24 C 333.55 570.05 374.88 567.39 407.30 556.64 C 439.72 545.89 467.83 532.21 498.30 502.30 C 528.77 472.39 545.16 442.16 555.65 412.70 C 566.14 383.23 570.75 335.68 562.20 299.25 C 553.65 262.81 547.10 242.09 525.24 210.77 C 503.37 179.45 464.33 149.81 437.30 138.71 C 410.28 127.62 369.51 110.86 327.00 116.00
M 323.00 137.00 
C 340.96 133.66 364.29 139.00 380.75 140.60 C 397.21 142.21 410.80 149.37 424.30 154.71 C 437.79 160.05 449.84 167.61 462.90 177.10 C 475.96 186.59 493.57 203.06 503.30 216.70 C 513.03 230.35 521.23 241.52 526.92 254.13 C 532.61 266.74 537.46 281.91 541.59 297.75 C 545.73 313.58 546.41 333.85 545.07 353.07 C 543.73 372.30 543.16 385.81 537.80 401.25 C 532.44 416.69 528.13 427.74 520.81 441.25 C 513.49 454.77 502.58 468.70 489.25 483.25 C 475.92 497.80 459.73 508.90 446.75 516.19 C 433.77 523.48 421.58 531.09 407.08 535.13 C 392.58 539.17 379.23 543.93 360.92 545.92 C 342.62 547.92 316.50 544.75 300.75 542.20 C 285.01 539.65 269.48 532.40 257.23 527.42 C 244.98 522.45 232.56 514.98 219.70 505.30 C 206.83 495.62 187.99 478.87 178.43 465.23 C 168.87 451.60 161.29 439.51 155.09 426.90 C 148.90 414.29 145.15 397.51 141.20 381.75 C 137.25 365.99 136.16 344.45 137.40 326.25 C 138.64 308.04 141.70 294.78 146.64 279.30 C 151.57 263.81 155.91 254.00 163.39 240.25 C 170.87 226.50 181.61 213.34 195.25 198.25 C 208.88 183.16 225.27 173.92 237.75 165.61 C 250.24 157.29 262.71 152.72 276.75 147.61 C 290.79 142.50 306.23 140.12 323.00 137.00 Z"/>
</g>
<g fill="None" fill-opacity="0.0" stroke="#000000" stroke-opacity="0.00" stroke-width="0.3"><path d="
M 323.00 137.00 
C 306.23 140.12 290.79 142.50 276.75 147.61 C 262.71 152.72 250.24 157.29 237.75 165.61 C 225.27 173.92 208.88 183.16 195.25 198.25 C 181.61 213.34 170.87 226.50 163.39 240.25 C 155.91 254.00 151.57 263.81 146.64 279.30 C 141.70 294.78 138.64 308.04 137.40 326.25 C 136.16 344.45 137.25 365.99 141.20 381.75 C 145.15 397.51 148.90 414.29 155.09 426.90 C 161.29 439.51 168.87 451.60 178.43 465.23 C 187.99 478.87 206.83 495.62 219.70 505.30 C 232.56 514.98 244.98 522.45 257.23 527.42 C 269.48 532.40 285.01 539.65 300.75 542.20 C 316.50 544.75 342.62 547.92 360.92 545.92 C 379.23 543.93 392.58 539.17 407.08 535.13 C 421.58 531.09 433.77 523.48 446.75 516.19 C 459.73 508.90 475.92 497.80 489.25 483.25 C 502.58 468.70 513.49 454.77 520.81 441.25 C 528.13 427.74 532.44 416.69 537.80 401.25 C 543.16 385.81 543.73 372.30 545.07 353.07 C 546.41 333.85 545.73 313.58 541.59 297.75 C 537.46 281.91 532.61 266.74 526.92 254.13 C 521.23 241.52 513.03 230.35 503.30 216.70 C 493.57 203.06 475.96 186.59 462.90 177.10 C 449.84 167.61 437.79 160.05 424.30 154.71 C 410.80 149.37 397.21 142.21 380.75 140.60 C 364.29 139.00 340.96 133.66 323.00 137.00
M 353.00 215.00 
C 350.67 254.50 352.66 295.08 352.00 335.00
C 365.04 335.26 379.05 334.66 392.00 335.00 C 404.95 335.34 419.13 333.88 431.22 334.78 C 443.32 335.67 457.70 335.64 468.08 335.07 C 478.45 334.50 479.61 346.95 474.00 354.00
C 437.39 354.64 392.23 353.58 352.00 354.00
C 352.49 372.91 351.35 396.56 352.00 415.00 C 352.65 433.44 351.19 452.52 351.93 469.08 C 352.67 485.64 330.78 485.46 331.98 468.97 C 333.18 452.48 329.49 434.64 330.99 415.99 C 332.50 397.35 329.88 373.15 331.00 354.00
C 290.86 353.67 245.64 354.48 209.00 354.00
C 200.53 342.55 208.30 333.26 225.00 335.00 C 241.70 336.74 260.84 334.09 278.00 335.00 C 295.16 335.91 313.71 334.32 331.00 335.00
C 330.34 295.09 332.33 254.47 330.00 215.00
C 335.08 213.75 336.68 208.38 341.25 208.20 C 345.81 208.02 347.97 213.67 353.00 215.00 Z"/>
</g>
<g fill="None" fill-opacity="0.0" stroke="#FFFFFF" stroke-opacity="1.00" stroke-width="0.3"><path d="
M 353.00 215.00 
C 347.97 213.67 345.81 208.02 341.25 208.20 C 336.68 208.38 335.08 213.75 330.00 215.00
C 332.33 254.47 330.34 295.09 331.00 335.00
C 313.71 334.32 295.16 335.91 278.00 335.00 C 260.84 334.09 241.70 336.74 225.00 335.00 C 208.30 333.26 200.53 342.55 209.00 354.00
C 245.64 354.48 290.86 353.67 331.00 354.00
C 329.88 373.15 332.50 397.35 330.99 415.99 C 329.49 434.64 333.18 452.48 331.98 468.97 C 330.78 485.46 352.67 485.64 351.93 469.08 C 351.19 452.52 352.65 433.44 352.00 415.00 C 351.35 396.56 352.49 372.91 352.00 354.00
C 392.23 353.58 437.39 354.64 474.00 354.00
C 479.61 346.95 478.45 334.50 468.08 335.07 C 457.70 335.64 443.32 335.67 431.22 334.78 C 419.13 333.88 404.95 335.34 392.00 335.00 C 379.05 334.66 365.04 335.26 352.00 335.00
C 352.66 295.08 350.67 254.50 353.00 215.00 Z"/>
</g>
<g fill="#000000" fill-opacity="0.00" stroke="None">
<path d="
M 0.00 683.00 
L 683.00 683.00
L 683.00 0.00
L 0.00 0.00
L 0.00 683.00
M 327.00 116.00 
C 369.51 110.86 410.28 127.62 437.30 138.71 C 464.33 149.81 503.37 179.45 525.24 210.77 C 547.10 242.09 553.65 262.81 562.20 299.25 C 570.75 335.68 566.14 383.23 555.65 412.70 C 545.16 442.16 528.77 472.39 498.30 502.30 C 467.83 532.21 439.72 545.89 407.30 556.64 C 374.88 567.39 333.55 570.05 295.75 561.24 C 257.95 552.44 237.77 545.06 206.23 521.43 C 174.69 497.80 149.24 462.07 136.81 434.75 C 124.38 407.42 113.13 365.40 117.31 323.30 C 121.48 281.20 130.73 258.96 147.13 228.08 C 163.53 197.20 203.14 161.06 231.25 145.81 C 259.37 130.57 288.69 120.63 327.00 116.00 Z"/>
</g>
<g fill="#FFFFFF" fill-opacity="1.00" stroke="None">
<path d="
M 327.00 116.00 
C 288.69 120.63 259.37 130.57 231.25 145.81 C 203.14 161.06 163.53 197.20 147.13 228.08 C 130.73 258.96 121.48 281.20 117.31 323.30 C 113.13 365.40 124.38 407.42 136.81 434.75 C 149.24 462.07 174.69 497.80 206.23 521.43 C 237.77 545.06 257.95 552.44 295.75 561.24 C 333.55 570.05 374.88 567.39 407.30 556.64 C 439.72 545.89 467.83 532.21 498.30 502.30 C 528.77 472.39 545.16 442.16 555.65 412.70 C 566.14 383.23 570.75 335.68 562.20 299.25 C 553.65 262.81 547.10 242.09 525.24 210.77 C 503.37 179.45 464.33 149.81 437.30 138.71 C 410.28 127.62 369.51 110.86 327.00 116.00
M 323.00 137.00 
C 340.96 133.66 364.29 139.00 380.75 140.60 C 397.21 142.21 410.80 149.37 424.30 154.71 C 437.79 160.05 449.84 167.61 462.90 177.10 C 475.96 186.59 493.57 203.06 503.30 216.70 C 513.03 230.35 521.23 241.52 526.92 254.13 C 532.61 266.74 537.46 281.91 541.59 297.75 C 545.73 313.58 546.41 333.85 545.07 353.07 C 543.73 372.30 543.16 385.81 537.80 401.25 C 532.44 416.69 528.13 427.74 520.81 441.25 C 513.49 454.77 502.58 468.70 489.25 483.25 C 475.92 497.80 459.73 508.90 446.75 516.19 C 433.77 523.48 421.58 531.09 407.08 535.13 C 392.58 539.17 379.23 543.93 360.92 545.92 C 342.62 547.92 316.50 544.75 300.75 542.20 C 285.01 539.65 269.48 532.40 257.23 527.42 C 244.98 522.45 232.56 514.98 219.70 505.30 C 206.83 495.62 187.99 478.87 178.43 465.23 C 168.87 451.60 161.29 439.51 155.09 426.90 C 148.90 414.29 145.15 397.51 141.20 381.75 C 137.25 365.99 136.16 344.45 137.40 326.25 C 138.64 308.04 141.70 294.78 146.64 279.30 C 151.57 263.81 155.91 254.00 163.39 240.25 C 170.87 226.50 181.61 213.34 195.25 198.25 C 208.88 183.16 225.27 173.92 237.75 165.61 C 250.24 157.29 262.71 152.72 276.75 147.61 C 290.79 142.50 306.23 140.12 323.00 137.00 Z"/>
</g>
<g fill="#000000" fill-opacity="0.00" stroke="None">
<path d="
M 323.00 137.00 
C 306.23 140.12 290.79 142.50 276.75 147.61 C 262.71 152.72 250.24 157.29 237.75 165.61 C 225.27 173.92 208.88 183.16 195.25 198.25 C 181.61 213.34 170.87 226.50 163.39 240.25 C 155.91 254.00 151.57 263.81 146.64 279.30 C 141.70 294.78 138.64 308.04 137.40 326.25 C 136.16 344.45 137.25 365.99 141.20 381.75 C 145.15 397.51 148.90 414.29 155.09 426.90 C 161.29 439.51 168.87 451.60 178.43 465.23 C 187.99 478.87 206.83 495.62 219.70 505.30 C 232.56 514.98 244.98 522.45 257.23 527.42 C 269.48 532.40 285.01 539.65 300.75 542.20 C 316.50 544.75 342.62 547.92 360.92 545.92 C 379.23 543.93 392.58 539.17 407.08 535.13 C 421.58 531.09 433.77 523.48 446.75 516.19 C 459.73 508.90 475.92 497.80 489.25 483.25 C 502.58 468.70 513.49 454.77 520.81 441.25 C 528.13 427.74 532.44 416.69 537.80 401.25 C 543.16 385.81 543.73 372.30 545.07 353.07 C 546.41 333.85 545.73 313.58 541.59 297.75 C 537.46 281.91 532.61 266.74 526.92 254.13 C 521.23 241.52 513.03 230.35 503.30 216.70 C 493.57 203.06 475.96 186.59 462.90 177.10 C 449.84 167.61 437.79 160.05 424.30 154.71 C 410.80 149.37 397.21 142.21 380.75 140.60 C 364.29 139.00 340.96 133.66 323.00 137.00
M 353.00 215.00 
C 350.67 254.50 352.66 295.08 352.00 335.00
C 365.04 335.26 379.05 334.66 392.00 335.00 C 404.95 335.34 419.13 333.88 431.22 334.78 C 443.32 335.67 457.70 335.64 468.08 335.07 C 478.45 334.50 479.61 346.95 474.00 354.00
C 437.39 354.64 392.23 353.58 352.00 354.00
C 352.49 372.91 351.35 396.56 352.00 415.00 C 352.65 433.44 351.19 452.52 351.93 469.08 C 352.67 485.64 330.78 485.46 331.98 468.97 C 333.18 452.48 329.49 434.64 330.99 415.99 C 332.50 397.35 329.88 373.15 331.00 354.00
C 290.86 353.67 245.64 354.48 209.00 354.00
C 200.53 342.55 208.30 333.26 225.00 335.00 C 241.70 336.74 260.84 334.09 278.00 335.00 C 295.16 335.91 313.71 334.32 331.00 335.00
C 330.34 295.09 332.33 254.47 330.00 215.00
C 335.08 213.75 336.68 208.38 341.25 208.20 C 345.81 208.02 347.97 213.67 353.00 215.00 Z"/>
</g>
<g fill="#FFFFFF" fill-opacity="1.00" stroke="None">
<path d="
M 353.00 215.00 
C 347.97 213.67 345.81 208.02 341.25 208.20 C 336.68 208.38 335.08 213.75 330.00 215.00
C 332.33 254.47 330.34 295.09 331.00 335.00
C 313.71 334.32 295.16 335.91 278.00 335.00 C 260.84 334.09 241.70 336.74 225.00 335.00 C 208.30 333.26 200.53 342.55 209.00 354.00
C 245.64 354.48 290.86 353.67 331.00 354.00
C 329.88 373.15 332.50 397.35 330.99 415.99 C 329.49 434.64 333.18 452.48 331.98 468.97 C 330.78 485.46 352.67 485.64 351.93 469.08 C 351.19 452.52 352.65 433.44 352.00 415.00 C 351.35 396.56 352.49 372.91 352.00 354.00
C 392.23 353.58 437.39 354.64 474.00 354.00
C 479.61 346.95 478.45 334.50 468.08 335.07 C 457.70 335.64 443.32 335.67 431.22 334.78 C 419.13 333.88 404.95 335.34 392.00 335.00 C 379.05 334.66 365.04 335.26 352.00 335.00
C 352.66 295.08 350.67 254.50 353.00 215.00 Z"/>
</g>
</svg>