<?xml version="1.0" encoding="utf-8"?>
<!-- Generator: Adobe Illustrator 27.5.0, SVG Export Plug-In . SVG Version: 6.00 Build 0)  -->
<svg version="1.1" xmlns="http://www.w3.org/2000/svg" xmlns:xlink="http://www.w3.org/1999/xlink" x="0px" y="0px"
	 viewBox="0 0 2200 2200" style="enable-background:new 0 0 2200 2200;" xml:space="preserve">
<g id="background">
	<rect style="fill:#FFFFFF;" width="2200" height="2200"/>
</g>
<g id="Objects">
	<g>
		
			<rect x="1480.534" y="549.748" transform="matrix(0.554 -0.8325 0.8325 0.554 202.4939 1578.0206)" style="fill:#29383A;" width="187.073" height="100.535"/>
		<path style="fill:#3A4D51;" d="M1558.151,524.7l88.395,61.69c14.074,9.826,33.438,6.382,43.264-7.692l43.646-62.546
			c9.826-14.074,6.372-33.438-7.692-43.264l-88.395-61.69c-14.074-9.816-33.448-6.372-43.264,7.702l-43.656,62.546
			C1540.633,495.51,1544.077,514.884,1558.151,524.7z"/>
		<path style="fill:#29383A;" d="M1100,500.209c-39.442,0-71.421-9.93-71.421-22.18V316.205c0-12.25,31.979-22.18,71.421-22.18
			c39.442,0,71.421,9.93,71.421,22.18V478.03C1171.421,490.279,1139.442,500.209,1100,500.209z"/>
		
			<rect x="575.662" y="506.479" transform="matrix(0.8325 -0.554 0.554 0.8325 -227.5787 447.2738)" style="fill:#29383A;" width="100.535" height="187.073"/>
		<circle style="fill:#E85454;" cx="1100" cy="1218.827" r="762.979"/>
		<circle style="fill:#FFFFFF;" cx="1100" cy="1218.827" r="618.811"/>
		<path style="fill:#BA4949;" d="M1100,1859.818c-171.214,0-332.183-66.675-453.248-187.743
			c-121.067-121.067-187.743-282.034-187.743-453.249s66.675-332.182,187.743-453.249C767.817,644.511,928.784,577.836,1100,577.836
			s332.183,66.675,453.248,187.742c121.067,121.067,187.743,282.034,187.743,453.249s-66.675,332.182-187.743,453.249
			C1432.183,1793.143,1271.214,1859.818,1100,1859.818z M1100,634.351c-156.119,0-302.894,60.796-413.287,171.189
			c-110.393,110.393-171.189,257.168-171.189,413.287s60.795,302.895,171.189,413.288
			c110.393,110.391,257.168,171.188,413.287,171.188s302.894-60.797,413.287-171.188
			c110.393-110.393,171.189-257.169,171.189-413.288s-60.795-302.894-171.189-413.287
			C1402.894,695.147,1256.119,634.351,1100,634.351z"/>
		<path style="fill:#3A4D51;" d="M1100,773.135c-12.249,0-22.18-9.93-22.18-22.18v-47.167c0-12.25,9.931-22.18,22.18-22.18
			c12.249,0,22.18,9.93,22.18,22.18v47.167C1122.18,763.205,1112.249,773.135,1100,773.135z"/>
		<path style="fill:#3A4D51;" d="M769.166,910.171c-5.677,0-11.352-2.165-15.684-6.496l-33.354-33.352
			c-8.662-8.662-8.662-22.705,0-31.367c8.66-8.662,22.704-8.663,31.368-0.001l33.354,33.352c8.662,8.662,8.662,22.705,0,31.367
			C780.52,908.005,774.843,910.171,769.166,910.171z"/>
		<path style="fill:#3A4D51;" d="M632.129,1241.006h-47.166c-12.249,0-22.18-9.93-22.18-22.18s9.931-22.18,22.18-22.18h47.166
			c12.249,0,22.18,9.93,22.18,22.18S644.378,1241.006,632.129,1241.006z"/>
		<path style="fill:#3A4D51;" d="M735.812,1605.193c-5.677,0-11.352-2.166-15.684-6.496c-8.662-8.664-8.662-22.706,0-31.368
			l33.354-33.352c8.666-8.66,22.706-8.657,31.368,0c8.662,8.664,8.662,22.706,0,31.368l-33.354,33.352
			C747.164,1603.027,741.487,1605.193,735.812,1605.193z"/>
		<path style="fill:#3A4D51;" d="M1100,1756.044c-12.249,0-22.18-9.931-22.18-22.18v-47.166c0-12.249,9.931-22.18,22.18-22.18
			c12.249,0,22.18,9.931,22.18,22.18v47.166C1122.18,1746.113,1112.249,1756.044,1100,1756.044z"/>
		<path style="fill:#3A4D51;" d="M1464.188,1605.193c-5.677,0-11.352-2.166-15.684-6.496l-33.354-33.352
			c-8.662-8.662-8.662-22.704,0-31.368c8.66-8.66,22.704-8.66,31.368,0l33.354,33.352c8.662,8.662,8.662,22.704,0,31.368
			C1475.542,1603.027,1469.865,1605.193,1464.188,1605.193z"/>
		<path style="fill:#3A4D51;" d="M1615.037,1241.006h-47.166c-12.249,0-22.18-9.93-22.18-22.18s9.931-22.18,22.18-22.18h47.166
			c12.249,0,22.18,9.93,22.18,22.18S1627.286,1241.006,1615.037,1241.006z"/>
		<path style="fill:#3A4D51;" d="M1430.834,910.171c-5.677,0-11.352-2.165-15.684-6.497c-8.662-8.662-8.662-22.705,0-31.367
			l33.354-33.352c8.668-8.66,22.708-8.661,31.368,0.001c8.662,8.662,8.662,22.705,0,31.367l-33.354,33.352
			C1442.186,908.005,1436.508,910.171,1430.834,910.171z"/>
		<path style="fill:#3A4D51;" d="M1204.8,350.262H995.199c-36.467,0-66.034-29.564-66.034-66.034s29.567-66.034,66.034-66.034
			H1204.8c36.467,0,66.034,29.564,66.034,66.034S1241.267,350.262,1204.8,350.262z"/>
		<path style="fill:#3A4D51;" d="M641.849,524.7l-88.395,61.69c-14.074,9.826-33.438,6.382-43.264-7.692l-43.646-62.546
			c-9.826-14.074-6.372-33.438,7.692-43.264l88.395-61.69c14.074-9.816,33.448-6.372,43.264,7.702l43.656,62.546
			C659.367,495.51,655.923,514.884,641.849,524.7z"/>
		<path style="fill:#E85454;" d="M1204.039,1180.144l89.234-371.901c3.266-13.613-14.85-21.529-22.62-9.884l-211.768,317.366
			c-26.464,10.537-48.906,31.22-61.003,59.58c-23.452,54.978,1.346,119.309,55.631,144.323
			c56.354,25.967,122.867,0.751,147.952-55.774C1213.706,1236.268,1213.803,1206.361,1204.039,1180.144z M1078.712,1266.795
			c-26.492-11.757-38.438-42.767-26.681-69.259c11.757-26.492,42.763-38.429,69.255-26.672
			c26.492,11.757,38.443,42.758,26.686,69.25C1136.214,1266.606,1105.204,1278.552,1078.712,1266.795z"/>
	</g>
</g>
</svg>
